<mxfile host="app.diagrams.net" agent="Mozilla/5.0 (Windows NT 10.0; Win64; x64) AppleWebKit/537.36 (KHTML, like Gecko) Chrome/130.0.0.0 Safari/537.36" version="24.8.4">
  <diagram id="C5RBs43oDa-KdzZeNtuy" name="Page-1">
    <mxGraphModel dx="1480" dy="558" grid="1" gridSize="10" guides="1" tooltips="1" connect="1" arrows="1" fold="1" page="1" pageScale="1" pageWidth="827" pageHeight="1169" math="0" shadow="0">
      <root>
        <mxCell id="WIyWlLk6GJQsqaUBKTNV-0" />
        <mxCell id="WIyWlLk6GJQsqaUBKTNV-1" parent="WIyWlLk6GJQsqaUBKTNV-0" />
        <mxCell id="WIyWlLk6GJQsqaUBKTNV-2" value="" style="rounded=0;html=1;jettySize=auto;orthogonalLoop=1;fontSize=11;endArrow=classic;endFill=1;endSize=8;strokeWidth=1;shadow=0;labelBackgroundColor=none;edgeStyle=orthogonalEdgeStyle;entryX=0.5;entryY=0;entryDx=0;entryDy=0;" parent="WIyWlLk6GJQsqaUBKTNV-1" source="WIyWlLk6GJQsqaUBKTNV-3" target="dxtR40hkdETe99mG-S9Q-5" edge="1">
          <mxGeometry relative="1" as="geometry">
            <mxPoint x="190" y="190" as="targetPoint" />
          </mxGeometry>
        </mxCell>
        <mxCell id="WIyWlLk6GJQsqaUBKTNV-3" value="Configurar GPIO&lt;div&gt;SysTick&lt;/div&gt;&lt;div&gt;TIMER&lt;/div&gt;&lt;div&gt;RCC&lt;/div&gt;&lt;div&gt;UART&lt;/div&gt;&lt;div&gt;ADC&lt;/div&gt;&lt;div&gt;DMA&lt;/div&gt;" style="rounded=1;whiteSpace=wrap;html=1;fontSize=12;glass=0;strokeWidth=1;shadow=0;" parent="WIyWlLk6GJQsqaUBKTNV-1" vertex="1">
          <mxGeometry x="130" y="20" width="120" height="110" as="geometry" />
        </mxCell>
        <mxCell id="dxtR40hkdETe99mG-S9Q-5" value="TIMER2&lt;div&gt;DESBORDA?&lt;/div&gt;" style="rhombus;whiteSpace=wrap;html=1;" vertex="1" parent="WIyWlLk6GJQsqaUBKTNV-1">
          <mxGeometry x="135" y="170" width="110" height="100" as="geometry" />
        </mxCell>
        <mxCell id="dxtR40hkdETe99mG-S9Q-6" value="Inicia una conversiÃ³n&lt;div&gt;del ADC&lt;/div&gt;" style="rounded=1;whiteSpace=wrap;html=1;" vertex="1" parent="WIyWlLk6GJQsqaUBKTNV-1">
          <mxGeometry y="415" width="135" height="60" as="geometry" />
        </mxCell>
        <mxCell id="dxtR40hkdETe99mG-S9Q-15" value="" style="endArrow=classic;html=1;rounded=0;endFill=1;exitX=1;exitY=0.5;exitDx=0;exitDy=0;" edge="1" parent="WIyWlLk6GJQsqaUBKTNV-1" source="dxtR40hkdETe99mG-S9Q-6">
          <mxGeometry width="50" height="50" relative="1" as="geometry">
            <mxPoint x="145" y="444.75" as="sourcePoint" />
            <mxPoint x="197.5" y="445.25" as="targetPoint" />
          </mxGeometry>
        </mxCell>
        <mxCell id="dxtR40hkdETe99mG-S9Q-16" value="ADC&lt;div&gt;INTERRUMPE?&lt;/div&gt;" style="rhombus;whiteSpace=wrap;html=1;" vertex="1" parent="WIyWlLk6GJQsqaUBKTNV-1">
          <mxGeometry x="197.5" y="390" width="110" height="110" as="geometry" />
        </mxCell>
        <mxCell id="dxtR40hkdETe99mG-S9Q-17" value="" style="endArrow=classic;html=1;rounded=0;" edge="1" parent="WIyWlLk6GJQsqaUBKTNV-1">
          <mxGeometry width="50" height="50" relative="1" as="geometry">
            <mxPoint x="307.5" y="444.66" as="sourcePoint" />
            <mxPoint x="337.5" y="445" as="targetPoint" />
          </mxGeometry>
        </mxCell>
        <mxCell id="dxtR40hkdETe99mG-S9Q-21" value="" style="endArrow=none;html=1;rounded=0;entryX=0.5;entryY=1;entryDx=0;entryDy=0;" edge="1" parent="WIyWlLk6GJQsqaUBKTNV-1" target="dxtR40hkdETe99mG-S9Q-16">
          <mxGeometry width="50" height="50" relative="1" as="geometry">
            <mxPoint x="197.5" y="515" as="sourcePoint" />
            <mxPoint x="257.5" y="515" as="targetPoint" />
            <Array as="points">
              <mxPoint x="252.5" y="515" />
            </Array>
          </mxGeometry>
        </mxCell>
        <mxCell id="dxtR40hkdETe99mG-S9Q-22" value="" style="endArrow=classic;html=1;rounded=0;entryX=0;entryY=0.5;entryDx=0;entryDy=0;" edge="1" parent="WIyWlLk6GJQsqaUBKTNV-1" target="dxtR40hkdETe99mG-S9Q-16">
          <mxGeometry width="50" height="50" relative="1" as="geometry">
            <mxPoint x="197.5" y="515" as="sourcePoint" />
            <mxPoint x="197.5" y="485" as="targetPoint" />
          </mxGeometry>
        </mxCell>
        <mxCell id="dxtR40hkdETe99mG-S9Q-23" value="NO" style="text;html=1;align=center;verticalAlign=middle;whiteSpace=wrap;rounded=0;" vertex="1" parent="WIyWlLk6GJQsqaUBKTNV-1">
          <mxGeometry x="197.5" y="515" width="60" height="30" as="geometry" />
        </mxCell>
        <mxCell id="dxtR40hkdETe99mG-S9Q-24" value="SI" style="text;html=1;align=center;verticalAlign=middle;whiteSpace=wrap;rounded=0;" vertex="1" parent="WIyWlLk6GJQsqaUBKTNV-1">
          <mxGeometry x="287.5" y="445" width="60" height="30" as="geometry" />
        </mxCell>
        <mxCell id="dxtR40hkdETe99mG-S9Q-26" value="ADC_IRQHandler" style="rounded=1;whiteSpace=wrap;html=1;" vertex="1" parent="WIyWlLk6GJQsqaUBKTNV-1">
          <mxGeometry x="337.5" y="415" width="120" height="60" as="geometry" />
        </mxCell>
        <mxCell id="dxtR40hkdETe99mG-S9Q-28" value="TIMER3&lt;div&gt;HABILITADO?&lt;/div&gt;" style="rhombus;whiteSpace=wrap;html=1;" vertex="1" parent="WIyWlLk6GJQsqaUBKTNV-1">
          <mxGeometry x="430" y="160" width="140" height="120" as="geometry" />
        </mxCell>
        <mxCell id="dxtR40hkdETe99mG-S9Q-35" value="TIMER3&lt;div&gt;DESBORDA?&lt;/div&gt;" style="rhombus;whiteSpace=wrap;html=1;" vertex="1" parent="WIyWlLk6GJQsqaUBKTNV-1">
          <mxGeometry x="610" y="165" width="110" height="110" as="geometry" />
        </mxCell>
        <mxCell id="dxtR40hkdETe99mG-S9Q-37" value="TIMER3_IRQHandler" style="rounded=1;whiteSpace=wrap;html=1;" vertex="1" parent="WIyWlLk6GJQsqaUBKTNV-1">
          <mxGeometry x="605" y="295" width="120" height="60" as="geometry" />
        </mxCell>
        <mxCell id="dxtR40hkdETe99mG-S9Q-43" value="" style="endArrow=classic;html=1;rounded=0;entryX=0;entryY=0.5;entryDx=0;entryDy=0;exitX=1;exitY=0.5;exitDx=0;exitDy=0;" edge="1" parent="WIyWlLk6GJQsqaUBKTNV-1" source="dxtR40hkdETe99mG-S9Q-5" target="dxtR40hkdETe99mG-S9Q-28">
          <mxGeometry width="50" height="50" relative="1" as="geometry">
            <mxPoint x="360" y="270" as="sourcePoint" />
            <mxPoint x="410" y="220" as="targetPoint" />
          </mxGeometry>
        </mxCell>
        <mxCell id="dxtR40hkdETe99mG-S9Q-44" value="NO" style="text;html=1;align=center;verticalAlign=middle;whiteSpace=wrap;rounded=0;" vertex="1" parent="WIyWlLk6GJQsqaUBKTNV-1">
          <mxGeometry x="270" y="200" width="60" height="30" as="geometry" />
        </mxCell>
        <mxCell id="dxtR40hkdETe99mG-S9Q-47" value="" style="endArrow=classic;html=1;rounded=0;entryX=0;entryY=0.5;entryDx=0;entryDy=0;exitX=1;exitY=0.5;exitDx=0;exitDy=0;" edge="1" parent="WIyWlLk6GJQsqaUBKTNV-1" source="dxtR40hkdETe99mG-S9Q-28" target="dxtR40hkdETe99mG-S9Q-35">
          <mxGeometry width="50" height="50" relative="1" as="geometry">
            <mxPoint x="360" y="270" as="sourcePoint" />
            <mxPoint x="410" y="220" as="targetPoint" />
          </mxGeometry>
        </mxCell>
        <mxCell id="dxtR40hkdETe99mG-S9Q-48" value="SI" style="text;html=1;align=center;verticalAlign=middle;whiteSpace=wrap;rounded=0;" vertex="1" parent="WIyWlLk6GJQsqaUBKTNV-1">
          <mxGeometry x="560" y="190" width="60" height="30" as="geometry" />
        </mxCell>
        <mxCell id="dxtR40hkdETe99mG-S9Q-51" value="" style="endArrow=classic;html=1;rounded=0;entryX=0.5;entryY=0;entryDx=0;entryDy=0;exitX=0.5;exitY=1;exitDx=0;exitDy=0;" edge="1" parent="WIyWlLk6GJQsqaUBKTNV-1" source="dxtR40hkdETe99mG-S9Q-35" target="dxtR40hkdETe99mG-S9Q-37">
          <mxGeometry width="50" height="50" relative="1" as="geometry">
            <mxPoint x="360" y="270" as="sourcePoint" />
            <mxPoint x="410" y="220" as="targetPoint" />
          </mxGeometry>
        </mxCell>
        <mxCell id="dxtR40hkdETe99mG-S9Q-53" value="" style="endArrow=classic;html=1;rounded=0;entryX=0.5;entryY=0;entryDx=0;entryDy=0;exitX=0;exitY=0.5;exitDx=0;exitDy=0;" edge="1" parent="WIyWlLk6GJQsqaUBKTNV-1" source="dxtR40hkdETe99mG-S9Q-5" target="dxtR40hkdETe99mG-S9Q-6">
          <mxGeometry width="50" height="50" relative="1" as="geometry">
            <mxPoint x="360" y="390" as="sourcePoint" />
            <mxPoint x="410" y="340" as="targetPoint" />
            <Array as="points">
              <mxPoint x="70" y="220" />
            </Array>
          </mxGeometry>
        </mxCell>
        <mxCell id="dxtR40hkdETe99mG-S9Q-54" value="SI" style="text;html=1;align=center;verticalAlign=middle;whiteSpace=wrap;rounded=0;" vertex="1" parent="WIyWlLk6GJQsqaUBKTNV-1">
          <mxGeometry x="60" y="245" width="60" height="30" as="geometry" />
        </mxCell>
        <mxCell id="dxtR40hkdETe99mG-S9Q-55" value="" style="endArrow=classic;html=1;rounded=0;entryX=0.5;entryY=1;entryDx=0;entryDy=0;exitX=1;exitY=0.5;exitDx=0;exitDy=0;" edge="1" parent="WIyWlLk6GJQsqaUBKTNV-1" source="dxtR40hkdETe99mG-S9Q-26" target="dxtR40hkdETe99mG-S9Q-28">
          <mxGeometry width="50" height="50" relative="1" as="geometry">
            <mxPoint x="360" y="390" as="sourcePoint" />
            <mxPoint x="410" y="340" as="targetPoint" />
            <Array as="points">
              <mxPoint x="500" y="445" />
            </Array>
          </mxGeometry>
        </mxCell>
        <mxCell id="dxtR40hkdETe99mG-S9Q-57" value="Variables Globales" style="swimlane;whiteSpace=wrap;html=1;" vertex="1" parent="WIyWlLk6GJQsqaUBKTNV-1">
          <mxGeometry x="540" width="200" height="160" as="geometry" />
        </mxCell>
        <mxCell id="dxtR40hkdETe99mG-S9Q-58" value="volatile nivel_agua = 0&lt;div&gt;volatile alarma_activa = 0&lt;/div&gt;&lt;div&gt;volatile contador_systick = 0&lt;/div&gt;&lt;div&gt;volatile led_blink_delay = 2000&lt;/div&gt;&lt;div&gt;uint16_t tim3_period= 5000&lt;/div&gt;&lt;div&gt;uint16_t array[8] = {0}&lt;/div&gt;&lt;div&gt;int indice = 0&lt;/div&gt;&lt;div&gt;uint32_t suma = 0&lt;/div&gt;&lt;div&gt;char uart_buffer[50]&lt;/div&gt;" style="text;html=1;align=center;verticalAlign=middle;resizable=0;points=[];autosize=1;strokeColor=none;fillColor=none;" vertex="1" parent="dxtR40hkdETe99mG-S9Q-57">
          <mxGeometry y="20" width="190" height="140" as="geometry" />
        </mxCell>
        <mxCell id="dxtR40hkdETe99mG-S9Q-59" value="SysTick&lt;div&gt;INTERRUMPE?&lt;/div&gt;" style="rhombus;whiteSpace=wrap;html=1;" vertex="1" parent="WIyWlLk6GJQsqaUBKTNV-1">
          <mxGeometry x="287.5" y="260" width="130" height="130" as="geometry" />
        </mxCell>
        <mxCell id="dxtR40hkdETe99mG-S9Q-61" value="" style="endArrow=classic;html=1;rounded=0;entryX=1;entryY=0.5;entryDx=0;entryDy=0;exitX=0;exitY=0.5;exitDx=0;exitDy=0;" edge="1" parent="WIyWlLk6GJQsqaUBKTNV-1" source="dxtR40hkdETe99mG-S9Q-37" target="dxtR40hkdETe99mG-S9Q-59">
          <mxGeometry width="50" height="50" relative="1" as="geometry">
            <mxPoint x="390" y="300" as="sourcePoint" />
            <mxPoint x="440" y="250" as="targetPoint" />
          </mxGeometry>
        </mxCell>
        <mxCell id="dxtR40hkdETe99mG-S9Q-62" value="SysTick_IRQHandler" style="rounded=1;whiteSpace=wrap;html=1;" vertex="1" parent="WIyWlLk6GJQsqaUBKTNV-1">
          <mxGeometry x="130" y="295" width="120" height="60" as="geometry" />
        </mxCell>
        <mxCell id="dxtR40hkdETe99mG-S9Q-63" value="" style="endArrow=classic;html=1;rounded=0;entryX=1;entryY=0.5;entryDx=0;entryDy=0;exitX=0;exitY=0.5;exitDx=0;exitDy=0;" edge="1" parent="WIyWlLk6GJQsqaUBKTNV-1" source="dxtR40hkdETe99mG-S9Q-59" target="dxtR40hkdETe99mG-S9Q-62">
          <mxGeometry width="50" height="50" relative="1" as="geometry">
            <mxPoint x="390" y="300" as="sourcePoint" />
            <mxPoint x="440" y="250" as="targetPoint" />
          </mxGeometry>
        </mxCell>
        <mxCell id="dxtR40hkdETe99mG-S9Q-64" value="" style="endArrow=classic;html=1;rounded=0;entryX=0.5;entryY=1;entryDx=0;entryDy=0;exitX=0.5;exitY=0;exitDx=0;exitDy=0;" edge="1" parent="WIyWlLk6GJQsqaUBKTNV-1" source="dxtR40hkdETe99mG-S9Q-62" target="dxtR40hkdETe99mG-S9Q-5">
          <mxGeometry width="50" height="50" relative="1" as="geometry">
            <mxPoint x="390" y="300" as="sourcePoint" />
            <mxPoint x="440" y="250" as="targetPoint" />
          </mxGeometry>
        </mxCell>
        <mxCell id="dxtR40hkdETe99mG-S9Q-65" value="" style="endArrow=classic;html=1;rounded=0;entryX=0.5;entryY=0;entryDx=0;entryDy=0;exitX=0.5;exitY=0;exitDx=0;exitDy=0;" edge="1" parent="WIyWlLk6GJQsqaUBKTNV-1" source="dxtR40hkdETe99mG-S9Q-28" target="dxtR40hkdETe99mG-S9Q-59">
          <mxGeometry width="50" height="50" relative="1" as="geometry">
            <mxPoint x="390" y="300" as="sourcePoint" />
            <mxPoint x="440" y="250" as="targetPoint" />
            <Array as="points">
              <mxPoint x="353" y="160" />
            </Array>
          </mxGeometry>
        </mxCell>
        <mxCell id="dxtR40hkdETe99mG-S9Q-66" value="NO" style="text;html=1;align=center;verticalAlign=middle;whiteSpace=wrap;rounded=0;" vertex="1" parent="WIyWlLk6GJQsqaUBKTNV-1">
          <mxGeometry x="384" y="130" width="60" height="30" as="geometry" />
        </mxCell>
        <mxCell id="dxtR40hkdETe99mG-S9Q-67" value="SI" style="text;html=1;align=center;verticalAlign=middle;whiteSpace=wrap;rounded=0;" vertex="1" parent="WIyWlLk6GJQsqaUBKTNV-1">
          <mxGeometry x="245" y="295" width="60" height="30" as="geometry" />
        </mxCell>
        <mxCell id="dxtR40hkdETe99mG-S9Q-68" value="" style="endArrow=classic;html=1;rounded=0;entryX=1;entryY=1;entryDx=0;entryDy=0;exitX=0;exitY=0;exitDx=0;exitDy=0;" edge="1" parent="WIyWlLk6GJQsqaUBKTNV-1" source="dxtR40hkdETe99mG-S9Q-59" target="dxtR40hkdETe99mG-S9Q-5">
          <mxGeometry width="50" height="50" relative="1" as="geometry">
            <mxPoint x="390" y="300" as="sourcePoint" />
            <mxPoint x="440" y="250" as="targetPoint" />
          </mxGeometry>
        </mxCell>
        <mxCell id="dxtR40hkdETe99mG-S9Q-69" value="NO" style="text;html=1;align=center;verticalAlign=middle;whiteSpace=wrap;rounded=0;" vertex="1" parent="WIyWlLk6GJQsqaUBKTNV-1">
          <mxGeometry x="250" y="250" width="60" height="30" as="geometry" />
        </mxCell>
      </root>
    </mxGraphModel>
  </diagram>
</mxfile>
